<svg width="40" height="40" viewBox="0 0 40 40" fill="none" xmlns="http://www.w3.org/2000/svg">
<path opacity="0.3" d="M36 0H4C1.79086 0 0 1.79086 0 4V36C0 38.2091 1.79086 40 4 40H36C38.2091 40 40 38.2091 40 36V4C40 1.79086 38.2091 0 36 0Z" fill="#F3F9FF"/>
<path d="M20 10C18.0222 10 16.0888 10.5865 14.4443 11.6853C12.7998 12.7841 11.5181 14.3459 10.7612 16.1732C10.0043 18.0004 9.8063 20.0111 10.1922 21.9509C10.578 23.8907 11.5304 25.6725 12.9289 27.0711C14.3275 28.4696 16.1093 29.422 18.0491 29.8079C19.9889 30.1937 21.9996 29.9957 23.8268 29.2388C25.6541 28.4819 27.2159 27.2002 28.3147 25.5557C29.4135 23.9112 30 21.9778 30 20C29.9971 17.3487 28.9426 14.8069 27.0679 12.9321C25.1931 11.0574 22.6513 10.0029 20 10ZM20 11.5C21.6811 11.5 23.3245 11.9985 24.7224 12.9325C26.1202 13.8665 27.2096 15.194 27.853 16.7472C28.4963 18.3004 28.6647 20.0094 28.3367 21.6583C28.0087 23.3071 27.1992 24.8217 26.0104 26.0104C24.8217 27.1992 23.3071 28.0087 21.6583 28.3367C20.0094 28.6646 18.3004 28.4963 16.7472 27.853C15.194 27.2096 13.8665 26.1202 12.9325 24.7223C11.9985 23.3245 11.5 21.6811 11.5 20C11.4986 18.8834 11.7174 17.7774 12.1441 16.7455C12.5707 15.7136 13.1968 14.7759 13.9864 13.9864C14.776 13.1968 15.7136 12.5707 16.7455 12.1441C17.7774 11.7174 18.8834 11.4986 20 11.5ZM19.988 14.989C19.7893 14.9922 19.5999 15.0741 19.4615 15.2168C19.3231 15.3595 19.2471 15.5513 19.25 15.75V20.75C19.25 20.9489 19.329 21.1397 19.4697 21.2803C19.6103 21.421 19.8011 21.5 20 21.5C20.1989 21.5 20.3897 21.421 20.5303 21.2803C20.671 21.1397 20.75 20.9489 20.75 20.75V15.75C20.7515 15.6496 20.7328 15.5499 20.695 15.4568C20.6572 15.3637 20.6011 15.2792 20.5301 15.2082C20.459 15.1372 20.3744 15.0813 20.2813 15.0436C20.1882 15.006 20.0884 14.9874 19.988 14.989ZM20 23C19.8022 23 19.6089 23.0586 19.4444 23.1685C19.28 23.2784 19.1518 23.4346 19.0761 23.6173C19.0004 23.8 18.9806 24.0011 19.0192 24.1951C19.0578 24.3891 19.153 24.5673 19.2929 24.7071C19.4328 24.847 19.6109 24.9422 19.8049 24.9808C19.9989 25.0194 20.2 24.9996 20.3827 24.9239C20.5654 24.8482 20.7216 24.72 20.8315 24.5556C20.9414 24.3911 21 24.1978 21 24C21 23.7348 20.8946 23.4804 20.7071 23.2929C20.5196 23.1054 20.2652 23 20 23Z" fill="#56B919"/>
</svg>
