<svg width="24" height="24" viewBox="0 0 24 24" fill="none" xmlns="http://www.w3.org/2000/svg">
<path d="M17.8866 1.5H8.1386C5.98473 1.5 4.23535 3.36946 4.23535 5.6472V20.7855C4.23535 22.7195 5.5398 23.536 7.1375 22.6013L12.0722 19.6896C12.598 19.3781 13.4474 19.3781 13.9631 19.6896L18.8978 22.6013C20.4955 23.5468 21.7999 22.7302 21.7999 20.7855V5.6472C21.7898 3.36946 20.0405 1.5 17.8866 1.5ZM16.0563 9.82662C15.0754 10.2027 14.044 10.3961 13.0126 10.3961C11.9812 10.3961 10.9497 10.2027 9.96887 9.82662C9.5745 9.67621 9.37226 9.21422 9.51383 8.7952C9.66551 8.37618 10.1003 8.1613 10.4947 8.31172C12.1227 8.93487 13.9126 8.93487 15.5406 8.31172C15.935 8.1613 16.3698 8.37618 16.5114 8.7952C16.6529 9.21422 16.4507 9.67621 16.0563 9.82662Z" fill="#44AE02"/>
</svg>
