<svg width="40" height="40" viewBox="0 0 40 40" fill="none" xmlns="http://www.w3.org/2000/svg">
<path opacity="0.3" d="M36 0H4C1.79086 0 0 1.79086 0 4V36C0 38.2091 1.79086 40 4 40H36C38.2091 40 40 38.2091 40 36V4C40 1.79086 38.2091 0 36 0Z" fill="#F3F9FF"/>
<path d="M19.38 28.909C19.72 29.0303 20.28 29.0303 20.62 28.909C23.52 27.9079 30 23.7315 30 16.6528C30 13.5281 27.51 11 24.44 11C22.62 11 21.01 11.8899 20 13.2652C18.99 11.8899 17.37 11 15.56 11C12.49 11 10 13.5281 10 16.6528C10 23.7315 16.48 27.9079 19.38 28.909Z" stroke="#56B919" stroke-linecap="round" stroke-linejoin="round"/>
</svg>
