<svg width="20" height="20" viewBox="0 0 20 20" fill="none" xmlns="http://www.w3.org/2000/svg">
<path d="M11.6673 5.83563L11.6672 8.33563L17.5005 8.33594L17.5004 11.6693L11.667 11.669L11.6669 14.169L7.50044 10.0021L11.6673 5.83563ZM11.6667 18.3356L4.16667 18.3352C3.72464 18.3352 3.30073 18.1596 2.98818 17.847C2.67564 17.5344 2.50006 17.1105 2.50009 16.6685L2.5008 3.33514C2.50082 2.89311 2.67644 2.4692 2.98901 2.15666C3.30159 1.84411 3.72552 1.66854 4.16755 1.66856L11.6676 1.66896C12.1096 1.66899 12.5335 1.8446 12.846 2.15718C13.1586 2.46976 13.3342 2.89369 13.3341 3.33572L13.334 5.00238L11.6674 5.0023L11.6675 3.33563L4.16746 3.33523L4.16676 16.6686L11.6668 16.669L11.6668 15.0023L13.3335 15.0024L13.3334 16.669C13.3334 17.1111 13.1578 17.535 12.8452 17.8475C12.5326 18.1601 12.1087 18.3357 11.6667 18.3356Z" fill="#56B919"/>
</svg>
