<svg width="40" height="40" viewBox="0 0 40 40" fill="none" xmlns="http://www.w3.org/2000/svg">
<path opacity="0.3" d="M36 0H4C1.79086 0 0 1.79086 0 4V36C0 38.2091 1.79086 40 4 40H36C38.2091 40 40 38.2091 40 36V4C40 1.79086 38.2091 0 36 0Z" fill="#F3F9FF"/>
<path d="M20.0005 10C18.5367 10.0011 17.0909 10.3235 15.7654 10.9445C14.4398 11.5655 13.2668 12.47 12.3291 13.594C11.3913 14.718 10.7118 16.0342 10.3385 17.4496C9.96517 18.865 9.90714 20.3452 10.1685 21.7855C10.4299 23.2257 11.0042 24.5911 11.8511 25.7851C12.6979 26.9791 13.7965 27.9726 15.0694 28.6955C16.3423 29.4184 17.7583 29.853 19.2175 29.9687C20.6768 30.0844 22.1436 29.8783 23.5145 29.365C23.6134 29.3359 23.7053 29.2867 23.7844 29.2204C23.8635 29.1542 23.9281 29.0723 23.9741 28.98C24.0201 28.8877 24.0466 28.7869 24.0518 28.6838C24.0571 28.5808 24.0411 28.4778 24.0047 28.3813C23.9684 28.2847 23.9125 28.1967 23.8406 28.1227C23.7687 28.0488 23.6823 27.9904 23.5869 27.9514C23.4914 27.9123 23.3889 27.8933 23.2857 27.8957C23.1826 27.898 23.0811 27.9216 22.9875 27.965C21.292 28.6014 19.4375 28.6797 17.6944 28.1883C15.9513 27.697 14.4107 26.6617 13.2971 25.2335C12.1836 23.8053 11.5553 22.0587 11.5039 20.2484C11.4525 18.4381 11.9806 16.6587 13.0113 15.1696C14.042 13.6804 15.5214 12.5594 17.2338 11.97C18.9463 11.3805 20.8022 11.3534 22.5311 11.8926C24.26 12.4317 25.7715 13.509 26.8453 14.9674C27.9191 16.4258 28.499 18.189 28.5005 20V21.25C28.5005 21.8467 28.2634 22.419 27.8415 22.841C27.4195 23.2629 26.8472 23.5 26.2505 23.5C25.6537 23.5 25.0814 23.2629 24.6595 22.841C24.2375 22.419 24.0005 21.8467 24.0005 21.25V15.75C24.0005 15.5511 23.9215 15.3603 23.7808 15.2197C23.6402 15.079 23.4494 15 23.2505 15C23.0516 15 22.8608 15.079 22.7202 15.2197C22.5795 15.3603 22.5005 15.5511 22.5005 15.75V16.283C22.1106 15.8807 21.6446 15.5601 21.1295 15.3398C20.6144 15.1196 20.0607 15.004 19.5005 15C18.2427 15.0718 17.0643 15.6375 16.2215 16.5739C15.3787 17.5103 14.9399 18.7417 15.0005 20C14.9399 21.2583 15.3787 22.4897 16.2215 23.4261C17.0643 24.3625 18.2427 24.9282 19.5005 25C20.1929 24.9909 20.8731 24.8157 21.4837 24.489C22.0943 24.1624 22.6176 23.6939 23.0095 23.123C23.4211 23.8384 24.0575 24.3977 24.8197 24.7141C25.582 25.0305 26.4274 25.0863 27.2246 24.8727C28.0219 24.6591 28.7262 24.1881 29.2282 23.533C29.7301 22.8779 30.0016 22.0753 30.0005 21.25V20C29.9973 17.3488 28.9427 14.8071 27.068 12.9324C25.1934 11.0578 22.6517 10.0032 20.0005 10ZM19.5005 16.5C20.3604 16.5715 21.1575 16.979 21.719 17.6341C22.2806 18.2893 22.5613 19.1393 22.5005 20C22.5613 20.8607 22.2806 21.7107 21.719 22.3659C21.1575 23.021 20.3604 23.4285 19.5005 23.5C18.6406 23.4285 17.8435 23.021 17.282 22.3659C16.7204 21.7107 16.4396 20.8607 16.5005 20C16.4396 19.1393 16.7204 18.2893 17.282 17.6341C17.8435 16.979 18.6406 16.5715 19.5005 16.5Z" fill="#56B919"/>
</svg>
