<svg width="40" height="40" viewBox="0 0 40 40" fill="none" xmlns="http://www.w3.org/2000/svg">
<path opacity="0.3" d="M36 0H4C1.79086 0 0 1.79086 0 4V36C0 38.2091 1.79086 40 4 40H36C38.2091 40 40 38.2091 40 36V4C40 1.79086 38.2091 0 36 0Z" fill="#F3F9FF"/>
<path d="M19.6042 10C18.8385 10.0025 18.0755 10.0927 17.3302 10.269C17.179 10.3043 17.0425 10.3857 16.9395 10.502C16.8365 10.6182 16.7721 10.7636 16.7552 10.918L16.5962 12.369C16.5706 12.6035 16.4901 12.8287 16.3611 13.0262C16.2322 13.2238 16.0584 13.3881 15.854 13.5059C15.6496 13.6237 15.4203 13.6916 15.1848 13.7041C14.9492 13.7167 14.714 13.6734 14.4982 13.578L13.1642 12.991C13.022 12.9284 12.8638 12.9114 12.7115 12.9426C12.5593 12.9738 12.4204 13.0515 12.3142 13.165C11.2605 14.2835 10.4792 15.6301 10.0312 17.1C9.98626 17.2485 9.98846 17.4073 10.0375 17.5546C10.0866 17.7018 10.1801 17.8302 10.3052 17.922L11.4882 18.789C11.6784 18.9283 11.833 19.1105 11.9396 19.3207C12.0462 19.5309 12.1017 19.7633 12.1017 19.999C12.1017 20.2347 12.0462 20.4671 11.9396 20.6773C11.833 20.8875 11.6784 21.0697 11.4882 21.209L10.3042 22.076C10.1791 22.1678 10.0856 22.2962 10.0365 22.4434C9.98746 22.5907 9.98526 22.7495 10.0302 22.898C10.4781 24.3688 11.2598 25.7161 12.3142 26.835C12.4206 26.9483 12.5594 27.0259 12.7117 27.0568C12.864 27.0878 13.0221 27.0708 13.1642 27.008L14.4972 26.421C14.7132 26.3251 14.9486 26.2816 15.1845 26.294C15.4205 26.3064 15.6501 26.3743 15.8548 26.4923C16.0595 26.6102 16.2334 26.7748 16.3624 26.9727C16.4914 27.1706 16.5719 27.3961 16.5972 27.631L16.7562 29.082C16.7732 29.2361 16.8375 29.3811 16.9403 29.4972C17.0431 29.6132 17.1793 29.6946 17.3302 29.73C18.8257 30.0888 20.3848 30.0888 21.8802 29.73C22.0315 29.6947 22.168 29.6133 22.271 29.497C22.374 29.3808 22.4384 29.2354 22.4552 29.081L22.6142 27.63C22.6399 27.3958 22.7203 27.1709 22.849 26.9736C22.9777 26.7762 23.1511 26.612 23.3551 26.4942C23.5592 26.3763 23.7881 26.3082 24.0233 26.2953C24.2586 26.2824 24.4936 26.3251 24.7092 26.42L26.0432 27.007C26.1854 27.0698 26.3435 27.0868 26.4958 27.0558C26.6481 27.0249 26.7869 26.9473 26.8932 26.834C27.9453 25.7154 28.7252 24.3691 29.1722 22.9C29.2172 22.7515 29.215 22.5927 29.166 22.4454C29.1169 22.2982 29.0233 22.1698 28.8982 22.078L27.7152 21.212C27.5251 21.0727 27.3705 20.8905 27.2639 20.6803C27.1573 20.4701 27.1018 20.2377 27.1018 20.002C27.1018 19.7663 27.1573 19.5339 27.2639 19.3237C27.3705 19.1135 27.5251 18.9313 27.7152 18.792L28.8982 17.926C29.0233 17.8342 29.1169 17.7058 29.166 17.5586C29.215 17.4113 29.2172 17.2525 29.1722 17.104C28.7245 15.6334 27.9432 14.2861 26.8892 13.167C26.7829 13.0537 26.6441 12.9761 26.4918 12.9452C26.3395 12.9142 26.1814 12.9312 26.0392 12.994L24.7042 13.579C24.4886 13.6739 24.2536 13.7166 24.0183 13.7037C23.7831 13.6908 23.5542 13.6227 23.3501 13.5048C23.1461 13.387 22.9727 13.2228 22.844 13.0254C22.7153 12.8281 22.6349 12.6032 22.6092 12.369L22.4502 10.918C22.4333 10.7639 22.369 10.6189 22.2662 10.5028C22.1634 10.3868 22.0272 10.3054 21.8762 10.27C21.1317 10.0934 20.3694 10.0028 19.6042 10ZM19.6042 11.5C20.083 11.5148 20.5595 11.5717 21.0282 11.67L21.1222 12.532C21.1735 13.0004 21.3343 13.4502 21.5918 13.8449C21.8492 14.2395 22.196 14.568 22.604 14.8037C23.0121 15.0394 23.4699 15.1756 23.9404 15.2014C24.4109 15.2271 24.8809 15.1417 25.3122 14.952L26.1042 14.6C26.7163 15.3338 27.1992 16.1663 27.5322 17.062L26.8322 17.578C26.4524 17.8567 26.1434 18.2209 25.9305 18.6411C25.7176 19.0614 25.6066 19.5259 25.6066 19.997C25.6066 20.4681 25.7176 20.9326 25.9305 21.3529C26.1434 21.7731 26.4524 22.1373 26.8322 22.416L27.5322 22.932C27.1998 23.8298 26.7169 24.6644 26.1042 25.4L25.3112 25.051C24.8799 24.8613 24.4099 24.7759 23.9394 24.8016C23.4689 24.8274 23.0111 24.9636 22.603 25.1993C22.195 25.435 21.8482 25.7635 21.5908 26.1581C21.3333 26.5528 21.1725 27.0026 21.1212 27.471L21.0272 28.333C20.5585 28.4312 20.082 28.4881 19.6032 28.503C19.1245 28.4882 18.648 28.4313 18.1792 28.333L18.0852 27.471C18.034 27.0026 17.8732 26.5528 17.6157 26.1581C17.3583 25.7635 17.0115 25.435 16.6034 25.1993C16.1954 24.9636 15.7376 24.8274 15.2671 24.8016C14.7966 24.7759 14.3266 24.8613 13.8952 25.051L13.1042 25.4C12.4921 24.6663 12.0092 23.8337 11.6762 22.938L12.3762 22.422C12.7563 22.1434 13.0654 21.7791 13.2785 21.3588C13.4915 20.9384 13.6025 20.4738 13.6025 20.0025C13.6025 19.5312 13.4915 19.0666 13.2785 18.6462C13.0654 18.2259 12.7563 17.8616 12.3762 17.583L11.6762 17.067C12.0087 16.1695 12.4916 15.3353 13.1042 14.6L13.8962 14.949C14.3275 15.1387 14.7974 15.2241 15.2678 15.1984C15.7383 15.1727 16.1961 15.0366 16.6041 14.801C17.0121 14.5654 17.3589 14.2371 17.6164 13.8425C17.8739 13.448 18.0349 12.9983 18.0862 12.53L18.1802 11.668C18.6491 11.5705 19.1256 11.5143 19.6042 11.5ZM19.6042 16C18.8131 16 18.0398 16.2346 17.382 16.6741C16.7242 17.1136 16.2115 17.7384 15.9087 18.4693C15.606 19.2002 15.5268 20.0044 15.6811 20.7804C15.8354 21.5563 16.2164 22.269 16.7758 22.8284C17.3352 23.3878 18.048 23.7688 18.8239 23.9231C19.5998 24.0775 20.4041 23.9983 21.135 23.6955C21.8659 23.3928 22.4906 22.8801 22.9301 22.2223C23.3696 21.5645 23.6042 20.7911 23.6042 20C23.6013 18.94 23.179 17.9243 22.4295 17.1748C21.6799 16.4253 20.6642 16.0029 19.6042 16ZM19.6042 17.5C20.0987 17.5 20.582 17.6466 20.9932 17.9213C21.4043 18.196 21.7247 18.5865 21.9139 19.0433C22.1032 19.5001 22.1527 20.0028 22.0562 20.4877C21.9597 20.9727 21.7216 21.4181 21.372 21.7678C21.0224 22.1174 20.5769 22.3555 20.092 22.452C19.607 22.5484 19.1044 22.4989 18.6475 22.3097C18.1907 22.1205 17.8003 21.8 17.5256 21.3889C17.2509 20.9778 17.1042 20.4945 17.1042 20C17.1028 19.6713 17.1665 19.3455 17.2916 19.0416C17.4167 18.7376 17.6008 18.4614 17.8332 18.229C18.0657 17.9965 18.3418 17.8125 18.6458 17.6873C18.9498 17.5622 19.2755 17.4985 19.6042 17.5Z" fill="#56B919"/>
</svg>
