<svg width="27" height="27" viewBox="0 0 27 27" fill="none" xmlns="http://www.w3.org/2000/svg">
<path d="M18.2138 2.25H8.78625C4.69125 2.25 2.25 4.69125 2.25 8.78625V18.2025C2.25 22.3088 4.69125 24.75 8.78625 24.75H18.2025C22.2975 24.75 24.7388 22.3088 24.7388 18.2138V8.78625C24.75 4.69125 22.3088 2.25 18.2138 2.25ZM16.4925 15.4462L15.0525 16.2788L13.6125 17.1112C11.7563 18.18 10.2375 17.3025 10.2375 15.165V13.5V11.835C10.2375 9.68625 11.7563 8.82 13.6125 9.88875L15.0525 10.7212L16.4925 11.5538C18.3487 12.6225 18.3487 14.3775 16.4925 15.4462Z" fill="white" fill-opacity="0.5"/>
</svg>
